<?xml version="1.0" encoding="UTF-8"?>
<svg width="67px" height="67px" viewBox="0 0 67 67" version="1.1" xmlns="http://www.w3.org/2000/svg" xmlns:xlink="http://www.w3.org/1999/xlink">
    <!-- Generator: Sketch 53.2 (72643) - https://sketchapp.com -->
    <title>error</title>
    <desc>Created with Sketch.</desc>
    <defs>
        <filter x="-20.3%" y="-20.3%" width="140.7%" height="140.7%" filterUnits="objectBoundingBox" id="filter-1">
            <feOffset dx="0" dy="2" in="SourceAlpha" result="shadowOffsetOuter1"></feOffset>
            <feGaussianBlur stdDeviation="2" in="shadowOffsetOuter1" result="shadowBlurOuter1"></feGaussianBlur>
            <feColorMatrix values="0 0 0 0 0   0 0 0 0 0   0 0 0 0 0  0 0 0 0.5 0" type="matrix" in="shadowBlurOuter1" result="shadowMatrixOuter1"></feColorMatrix>
            <feMerge>
                <feMergeNode in="shadowMatrixOuter1"></feMergeNode>
                <feMergeNode in="SourceGraphic"></feMergeNode>
            </feMerge>
        </filter>
    </defs>
    <g id="Page-1" stroke="none" stroke-width="1" fill="none" fill-rule="evenodd">
        <g id="Crashing" transform="translate(-170.000000, -256.000000)" fill="#FF5757">
            <g id="error" filter="url(#filter-1)" transform="translate(174.000000, 258.000000)">
                <path d="M29.5,0 C13.275,0 0,13.275 0,29.5 C0,45.725 13.275,59 29.5,59 C45.725,59 59,45.725 59,29.5 C59,13.275 45.725,0 29.5,0 L29.5,0 Z M32.45,44.25 L26.55,44.25 L26.55,38.35 L32.45,38.35 L32.45,44.25 L32.45,44.25 Z M32.45,32.45 L26.55,32.45 L26.55,14.75 L32.45,14.75 L32.45,32.45 L32.45,32.45 Z" id="Shape"></path>
            </g>
        </g>
    </g>
</svg>